<?xml version="1.0" ?><svg viewBox="0 0 64 64" xmlns="http://www.w3.org/2000/svg"><title/><g data-name="Layer 8" id="Layer_8"><path d="M61,61V46a1,1,0,0,0-1-1H59V6a1,1,0,0,0-1-1H55V2a1,1,0,0,0-1-1H42a1,1,0,0,0-1,1V5H38a1,1,0,0,0-1,1V23H30a1,1,0,0,0-1,1V42H27V23a1,1,0,0,0-1-1H22.94A8,8,0,0,0,16,15.07V11H14v4.07A8,8,0,0,0,7.06,22H4a1,1,0,0,0-1,1V61H1v2H63V61ZM45,11V23H43V11Zm2,13V11h2V45H47Zm4,21V11h2V45Zm8,2V61H42V47Zm-4-2V11h2V45ZM42,7a1,1,0,0,0,1-1V3H53V6a1,1,0,0,0,1,1h3V9H39V7Zm-3,4h2V23H39ZM31,25H45V45H41a1,1,0,0,0-1,1V61H36V43a1,1,0,0,0-1-1H31Zm3,36H18V44H34ZM15,17a6,6,0,0,1,6,6,1,1,0,0,0,1,1h3V36H23.5A1.5,1.5,0,0,1,22,34.5,3.5,3.5,0,0,0,18.5,31h-3A1.5,1.5,0,0,1,14,29.5,3.5,3.5,0,0,0,10.5,26,1.5,1.5,0,0,1,9,24.5V23A6,6,0,0,1,15,17ZM5,24H7v.5A3.5,3.5,0,0,0,10.5,28,1.5,1.5,0,0,1,12,29.5,3.5,3.5,0,0,0,15.5,33h3a1.51,1.51,0,0,1,1.41,1H17a1,1,0,0,0-1,1v4a1,1,0,0,0,1,1h4a1,1,0,0,0,1-1V37.65a3.45,3.45,0,0,0,1.5.35H25v4H17a1,1,0,0,0-1,1V61H5ZM20,36v2H18V36Z"/><path d="M13,34H9a1,1,0,0,0-1,1v4a1,1,0,0,0,1,1h4a1,1,0,0,0,1-1V35A1,1,0,0,0,13,34Zm-1,4H10V36h2Z"/><path d="M13,42H9a1,1,0,0,0-1,1v4a1,1,0,0,0,1,1h4a1,1,0,0,0,1-1V43A1,1,0,0,0,13,42Zm-1,4H10V44h2Z"/><path d="M13,50H9a1,1,0,0,0-1,1v4a1,1,0,0,0,1,1h4a1,1,0,0,0,1-1V51A1,1,0,0,0,13,50Zm-1,4H10V52h2Z"/><rect height="4" width="2" x="21" y="46"/><rect height="4" width="2" x="25" y="46"/><rect height="4" width="2" x="29" y="46"/><rect height="4" width="2" x="21" y="52"/><rect height="4" width="2" x="25" y="52"/><rect height="4" width="2" x="29" y="52"/><rect height="2" width="13" x="44" y="49"/><rect height="2" width="13" x="44" y="53"/><rect height="2" width="13" x="44" y="57"/><rect height="2" width="10" x="33" y="27"/><rect height="2" width="10" x="33" y="31"/><rect height="2" width="10" x="33" y="35"/><rect height="2" width="10" x="33" y="39"/><path d="M27,18a3,3,0,1,0-3-3A3,3,0,0,0,27,18Zm0-4a1,1,0,1,1-1,1A1,1,0,0,1,27,14Z"/><path d="M7,10A3,3,0,1,0,4,7,3,3,0,0,0,7,10ZM7,6A1,1,0,1,1,6,7,1,1,0,0,1,7,6Z"/></g></svg>