<svg width="319" height="48" viewBox="0 0 319 48" fill="none" xmlns="http://www.w3.org/2000/svg">
<path d="M8.14 38C6.164 38 4.46533 37.2893 3.044 35.868C1.62267 34.4467 0.912 32.748 0.912 30.772V7.788C0.912 5.812 1.62267 4.11333 3.044 2.692C4.46533 1.27067 6.164 0.559999 8.14 0.559999H38.248V7.476H9.596C8.62533 7.476 8.07067 7.54533 7.932 7.684C7.828 7.788 7.776 8.32533 7.776 9.296V29.264C7.776 30.2347 7.828 30.7893 7.932 30.928C8.07067 31.032 8.62533 31.084 9.596 31.084H38.248V38H8.14ZM48.7378 38C47.1418 38 45.7698 37.44 44.6218 36.32C43.5018 35.172 42.9418 33.8 42.9418 32.204V5.618H48.4858V31.028C48.4858 31.812 48.5278 32.26 48.6118 32.372C48.7238 32.456 49.1578 32.498 49.9138 32.498H53.6518V38H48.7378ZM57.5434 38V13.64H63.0454V38H57.5434ZM57.5434 11.204V5.66H63.0454V11.204H57.5434ZM66.9379 38V13.64H97.1359C98.7319 13.64 100.09 14.214 101.21 15.362C102.358 16.482 102.932 17.84 102.932 19.436V38H97.4719V20.612C97.4719 19.828 97.4159 19.394 97.3039 19.31C97.1919 19.198 96.7579 19.142 96.0019 19.142H89.1979C88.4139 19.142 87.9659 19.198 87.8539 19.31C87.7699 19.394 87.7279 19.828 87.7279 20.612V38H82.1839V20.612C82.1839 19.828 82.1279 19.394 82.0159 19.31C81.9319 19.198 81.4979 19.142 80.7139 19.142H73.9099C73.1259 19.142 72.6779 19.198 72.5659 19.31C72.4819 19.394 72.4399 19.828 72.4399 20.612V38H66.9379ZM112.804 38C111.208 38 109.836 37.44 108.688 36.32C107.568 35.172 107.008 33.8 107.008 32.204V23.048H126.244V20.612C126.244 19.828 126.188 19.394 126.076 19.31C125.992 19.198 125.558 19.142 124.774 19.142H107.008V13.64H125.95C127.546 13.64 128.904 14.214 130.024 15.362C131.172 16.482 131.746 17.84 131.746 19.436V38H112.804ZM113.98 32.498H126.244V28.004H112.51V31.028C112.51 31.812 112.552 32.26 112.636 32.372C112.748 32.456 113.196 32.498 113.98 32.498ZM136.464 28.34V22.838H153.642V28.34H136.464ZM172.012 38V7.476H156.724V0.559999H194.164V7.476H178.928V38H172.012ZM203.079 38C201.483 38 200.111 37.44 198.963 36.32C197.843 35.172 197.283 33.8 197.283 32.204V19.436C197.283 17.84 197.843 16.482 198.963 15.362C200.111 14.214 201.483 13.64 203.079 13.64H216.225C217.821 13.64 219.179 14.214 220.299 15.362C221.447 16.482 222.021 17.84 222.021 19.436V28.592H202.785V31.028C202.785 31.812 202.827 32.26 202.911 32.372C203.023 32.456 203.471 32.498 204.255 32.498H222.021V38H203.079ZM202.785 23.636H216.519V20.612C216.519 19.828 216.463 19.394 216.351 19.31C216.267 19.198 215.833 19.142 215.049 19.142H204.255C203.471 19.142 203.023 19.198 202.911 19.31C202.827 19.394 202.785 19.828 202.785 20.612V23.636ZM226.489 38V13.64H256.687C258.283 13.64 259.641 14.214 260.761 15.362C261.909 16.482 262.483 17.84 262.483 19.436V38H257.023V20.612C257.023 19.828 256.967 19.394 256.855 19.31C256.743 19.198 256.309 19.142 255.553 19.142H248.749C247.965 19.142 247.517 19.198 247.405 19.31C247.321 19.394 247.279 19.828 247.279 20.612V38H241.735V20.612C241.735 19.828 241.679 19.394 241.567 19.31C241.483 19.198 241.049 19.142 240.265 19.142H233.461C232.677 19.142 232.229 19.198 232.117 19.31C232.033 19.394 231.991 19.828 231.991 20.612V38H226.489ZM265.905 47.66V13.64H284.847C286.443 13.64 287.801 14.214 288.921 15.362C290.069 16.482 290.643 17.84 290.643 19.436V32.204C290.643 33.8 290.069 35.172 288.921 36.32C287.801 37.44 286.443 38 284.847 38H271.407V47.66H265.905ZM272.877 32.498H283.671C284.455 32.498 284.889 32.456 284.973 32.372C285.085 32.26 285.141 31.812 285.141 31.028V20.612C285.141 19.828 285.085 19.394 284.973 19.31C284.889 19.198 284.455 19.142 283.671 19.142H272.877C272.093 19.142 271.645 19.198 271.533 19.31C271.449 19.394 271.407 19.828 271.407 20.612V31.028C271.407 31.812 271.449 32.26 271.533 32.372C271.645 32.456 272.093 32.498 272.877 32.498ZM299.465 38C297.869 38 296.497 37.44 295.349 36.32C294.229 35.172 293.669 33.8 293.669 32.204V19.436C293.669 17.84 294.229 16.482 295.349 15.362C296.497 14.214 297.869 13.64 299.465 13.64H312.611C314.207 13.64 315.565 14.214 316.685 15.362C317.833 16.482 318.407 17.84 318.407 19.436V32.204C318.407 33.8 317.833 35.172 316.685 36.32C315.565 37.44 314.207 38 312.611 38H299.465ZM300.641 32.498H311.435C312.219 32.498 312.653 32.456 312.737 32.372C312.849 32.26 312.905 31.812 312.905 31.028V20.612C312.905 19.828 312.849 19.394 312.737 19.31C312.653 19.198 312.219 19.142 311.435 19.142H300.641C299.857 19.142 299.409 19.198 299.297 19.31C299.213 19.394 299.171 19.828 299.171 20.612V31.028C299.171 31.812 299.213 32.26 299.297 32.372C299.409 32.456 299.857 32.498 300.641 32.498Z" fill="#065EDC"/>
</svg>
